<mxfile host="Electron" modified="2023-05-21T09:06:04.300Z" agent="Mozilla/5.0 (Macintosh; Intel Mac OS X 10_15_7) AppleWebKit/537.36 (KHTML, like Gecko) draw.io/21.2.8 Chrome/112.0.5615.165 Electron/24.2.0 Safari/537.36" etag="jMA0jytEj6HiMmnNgM0b" version="21.2.8" type="device">
  <diagram id="C5RBs43oDa-KdzZeNtuy" name="Page-1">
    <mxGraphModel dx="1060" dy="749" grid="1" gridSize="10" guides="1" tooltips="1" connect="1" arrows="1" fold="1" page="1" pageScale="1" pageWidth="827" pageHeight="1169" math="0" shadow="0">
      <root>
        <mxCell id="WIyWlLk6GJQsqaUBKTNV-0" />
        <mxCell id="WIyWlLk6GJQsqaUBKTNV-1" parent="WIyWlLk6GJQsqaUBKTNV-0" />
        <mxCell id="WIyWlLk6GJQsqaUBKTNV-4" value="" style="rounded=0;html=1;jettySize=auto;orthogonalLoop=1;fontSize=11;endArrow=block;endFill=0;endSize=8;strokeWidth=1;shadow=0;labelBackgroundColor=none;edgeStyle=orthogonalEdgeStyle;" parent="WIyWlLk6GJQsqaUBKTNV-1" source="WIyWlLk6GJQsqaUBKTNV-6" target="WIyWlLk6GJQsqaUBKTNV-10" edge="1">
          <mxGeometry y="20" relative="1" as="geometry">
            <mxPoint as="offset" />
          </mxGeometry>
        </mxCell>
        <mxCell id="aAv8kMrVU4CyxvC6ETkt-8" style="edgeStyle=orthogonalEdgeStyle;rounded=0;orthogonalLoop=1;jettySize=auto;html=1;entryX=0;entryY=0.5;entryDx=0;entryDy=0;" edge="1" parent="WIyWlLk6GJQsqaUBKTNV-1" source="WIyWlLk6GJQsqaUBKTNV-6" target="aAv8kMrVU4CyxvC6ETkt-7">
          <mxGeometry relative="1" as="geometry" />
        </mxCell>
        <mxCell id="aAv8kMrVU4CyxvC6ETkt-16" value="Да&lt;br&gt;" style="edgeLabel;html=1;align=center;verticalAlign=middle;resizable=0;points=[];" vertex="1" connectable="0" parent="aAv8kMrVU4CyxvC6ETkt-8">
          <mxGeometry x="0.04" y="-1" relative="1" as="geometry">
            <mxPoint y="-11" as="offset" />
          </mxGeometry>
        </mxCell>
        <mxCell id="WIyWlLk6GJQsqaUBKTNV-6" value="Операция вставки?" style="rhombus;whiteSpace=wrap;html=1;shadow=0;fontFamily=Helvetica;fontSize=12;align=center;strokeWidth=1;spacing=6;spacingTop=-4;" parent="WIyWlLk6GJQsqaUBKTNV-1" vertex="1">
          <mxGeometry x="170" y="170" width="100" height="80" as="geometry" />
        </mxCell>
        <mxCell id="WIyWlLk6GJQsqaUBKTNV-8" value="" style="rounded=0;html=1;jettySize=auto;orthogonalLoop=1;fontSize=11;endArrow=block;endFill=0;endSize=8;strokeWidth=1;shadow=0;labelBackgroundColor=none;edgeStyle=orthogonalEdgeStyle;" parent="WIyWlLk6GJQsqaUBKTNV-1" source="aAv8kMrVU4CyxvC6ETkt-2" edge="1">
          <mxGeometry x="0.3222" y="20" relative="1" as="geometry">
            <mxPoint as="offset" />
            <mxPoint x="220" y="430" as="targetPoint" />
          </mxGeometry>
        </mxCell>
        <mxCell id="aAv8kMrVU4CyxvC6ETkt-13" style="edgeStyle=orthogonalEdgeStyle;rounded=0;orthogonalLoop=1;jettySize=auto;html=1;entryX=0;entryY=0.5;entryDx=0;entryDy=0;" edge="1" parent="WIyWlLk6GJQsqaUBKTNV-1" source="WIyWlLk6GJQsqaUBKTNV-10" target="aAv8kMrVU4CyxvC6ETkt-10">
          <mxGeometry relative="1" as="geometry" />
        </mxCell>
        <mxCell id="WIyWlLk6GJQsqaUBKTNV-10" value="Операция обновления?" style="rhombus;whiteSpace=wrap;html=1;shadow=0;fontFamily=Helvetica;fontSize=12;align=center;strokeWidth=1;spacing=6;spacingTop=-4;" parent="WIyWlLk6GJQsqaUBKTNV-1" vertex="1">
          <mxGeometry x="170" y="290" width="100" height="80" as="geometry" />
        </mxCell>
        <mxCell id="aAv8kMrVU4CyxvC6ETkt-1" style="edgeStyle=orthogonalEdgeStyle;rounded=0;orthogonalLoop=1;jettySize=auto;html=1;entryX=0.5;entryY=0;entryDx=0;entryDy=0;" edge="1" parent="WIyWlLk6GJQsqaUBKTNV-1" source="aAv8kMrVU4CyxvC6ETkt-0" target="WIyWlLk6GJQsqaUBKTNV-6">
          <mxGeometry relative="1" as="geometry" />
        </mxCell>
        <mxCell id="aAv8kMrVU4CyxvC6ETkt-0" value="Начало" style="strokeWidth=2;html=1;shape=mxgraph.flowchart.terminator;whiteSpace=wrap;" vertex="1" parent="WIyWlLk6GJQsqaUBKTNV-1">
          <mxGeometry x="170" y="100" width="100" height="40" as="geometry" />
        </mxCell>
        <mxCell id="aAv8kMrVU4CyxvC6ETkt-12" style="edgeStyle=orthogonalEdgeStyle;rounded=0;orthogonalLoop=1;jettySize=auto;html=1;entryX=0;entryY=0.5;entryDx=0;entryDy=0;" edge="1" parent="WIyWlLk6GJQsqaUBKTNV-1" source="aAv8kMrVU4CyxvC6ETkt-2" target="aAv8kMrVU4CyxvC6ETkt-11">
          <mxGeometry relative="1" as="geometry" />
        </mxCell>
        <mxCell id="aAv8kMrVU4CyxvC6ETkt-15" style="edgeStyle=orthogonalEdgeStyle;rounded=0;orthogonalLoop=1;jettySize=auto;html=1;entryX=0.5;entryY=0;entryDx=0;entryDy=0;entryPerimeter=0;" edge="1" parent="WIyWlLk6GJQsqaUBKTNV-1" source="aAv8kMrVU4CyxvC6ETkt-2" target="aAv8kMrVU4CyxvC6ETkt-14">
          <mxGeometry relative="1" as="geometry" />
        </mxCell>
        <mxCell id="aAv8kMrVU4CyxvC6ETkt-19" style="edgeStyle=orthogonalEdgeStyle;rounded=0;orthogonalLoop=1;jettySize=auto;html=1;entryX=0.5;entryY=0;entryDx=0;entryDy=0;entryPerimeter=0;" edge="1" parent="WIyWlLk6GJQsqaUBKTNV-1" source="aAv8kMrVU4CyxvC6ETkt-7" target="aAv8kMrVU4CyxvC6ETkt-14">
          <mxGeometry relative="1" as="geometry">
            <Array as="points">
              <mxPoint x="790" y="210" />
              <mxPoint x="790" y="510" />
              <mxPoint x="220" y="510" />
            </Array>
          </mxGeometry>
        </mxCell>
        <mxCell id="aAv8kMrVU4CyxvC6ETkt-7" value="total_hours_count = total_hours_count + ((new.time_end - new.time_start)/3600)&lt;br&gt;где project.id = entry.project_id" style="rounded=0;whiteSpace=wrap;html=1;fontSize=12;glass=0;strokeWidth=1;shadow=0;" vertex="1" parent="WIyWlLk6GJQsqaUBKTNV-1">
          <mxGeometry x="320" y="190" width="440" height="40" as="geometry" />
        </mxCell>
        <mxCell id="aAv8kMrVU4CyxvC6ETkt-20" style="edgeStyle=orthogonalEdgeStyle;rounded=0;orthogonalLoop=1;jettySize=auto;html=1;endArrow=none;endFill=0;" edge="1" parent="WIyWlLk6GJQsqaUBKTNV-1" source="aAv8kMrVU4CyxvC6ETkt-10">
          <mxGeometry relative="1" as="geometry">
            <mxPoint x="790" y="330" as="targetPoint" />
          </mxGeometry>
        </mxCell>
        <mxCell id="aAv8kMrVU4CyxvC6ETkt-10" value="total_hours_count = total_hours_count + ((new.time_end - new.time_start -(old.time_end - old.time_start))/3600)&lt;br&gt;где project.id = entry.project_id" style="rounded=0;whiteSpace=wrap;html=1;fontSize=12;glass=0;strokeWidth=1;shadow=0;" vertex="1" parent="WIyWlLk6GJQsqaUBKTNV-1">
          <mxGeometry x="320" y="305" width="440" height="50" as="geometry" />
        </mxCell>
        <mxCell id="aAv8kMrVU4CyxvC6ETkt-21" style="edgeStyle=orthogonalEdgeStyle;rounded=0;orthogonalLoop=1;jettySize=auto;html=1;endArrow=none;endFill=0;" edge="1" parent="WIyWlLk6GJQsqaUBKTNV-1" source="aAv8kMrVU4CyxvC6ETkt-11">
          <mxGeometry relative="1" as="geometry">
            <mxPoint x="790" y="480" as="targetPoint" />
            <Array as="points">
              <mxPoint x="790" y="445" />
              <mxPoint x="790" y="470" />
            </Array>
          </mxGeometry>
        </mxCell>
        <mxCell id="aAv8kMrVU4CyxvC6ETkt-11" value="total_hours_count = total_hours_count + (old.time_end - old.time_start)/3600)&lt;br&gt;где project.id = entry.project_id" style="rounded=0;whiteSpace=wrap;html=1;fontSize=12;glass=0;strokeWidth=1;shadow=0;" vertex="1" parent="WIyWlLk6GJQsqaUBKTNV-1">
          <mxGeometry x="320" y="420" width="440" height="50" as="geometry" />
        </mxCell>
        <mxCell id="aAv8kMrVU4CyxvC6ETkt-14" value="Конец" style="strokeWidth=2;html=1;shape=mxgraph.flowchart.terminator;whiteSpace=wrap;" vertex="1" parent="WIyWlLk6GJQsqaUBKTNV-1">
          <mxGeometry x="170" y="540" width="100" height="40" as="geometry" />
        </mxCell>
        <mxCell id="aAv8kMrVU4CyxvC6ETkt-17" value="Да&lt;br&gt;" style="edgeLabel;html=1;align=center;verticalAlign=middle;resizable=0;points=[];" vertex="1" connectable="0" parent="WIyWlLk6GJQsqaUBKTNV-1">
          <mxGeometry x="306" y="210" as="geometry">
            <mxPoint x="-17" y="109" as="offset" />
          </mxGeometry>
        </mxCell>
        <mxCell id="aAv8kMrVU4CyxvC6ETkt-18" value="Да&lt;br&gt;" style="edgeLabel;html=1;align=center;verticalAlign=middle;resizable=0;points=[];" vertex="1" connectable="0" parent="WIyWlLk6GJQsqaUBKTNV-1">
          <mxGeometry x="316" y="190" as="geometry">
            <mxPoint x="-26" y="242" as="offset" />
          </mxGeometry>
        </mxCell>
        <mxCell id="aAv8kMrVU4CyxvC6ETkt-22" value="" style="rounded=0;html=1;jettySize=auto;orthogonalLoop=1;fontSize=11;endArrow=block;endFill=0;endSize=8;strokeWidth=1;shadow=0;labelBackgroundColor=none;edgeStyle=orthogonalEdgeStyle;" edge="1" parent="WIyWlLk6GJQsqaUBKTNV-1" source="WIyWlLk6GJQsqaUBKTNV-10" target="aAv8kMrVU4CyxvC6ETkt-2">
          <mxGeometry x="0.3222" y="20" relative="1" as="geometry">
            <mxPoint as="offset" />
            <mxPoint x="220" y="370" as="sourcePoint" />
            <mxPoint x="220" y="430" as="targetPoint" />
          </mxGeometry>
        </mxCell>
        <mxCell id="aAv8kMrVU4CyxvC6ETkt-2" value="Операция удаления?" style="rhombus;whiteSpace=wrap;html=1;shadow=0;fontFamily=Helvetica;fontSize=12;align=center;strokeWidth=1;spacing=6;spacingTop=-4;" vertex="1" parent="WIyWlLk6GJQsqaUBKTNV-1">
          <mxGeometry x="170" y="405" width="100" height="80" as="geometry" />
        </mxCell>
      </root>
    </mxGraphModel>
  </diagram>
</mxfile>
